HIERARCHY
ROOT Hips
{
	OFFSET 0.00000 0.00000 0.00000
	CHANNELS 6 Xposition Yposition Zposition Zrotation Yrotation Xrotation 
	JOINT LHipJoint
	{
		OFFSET 0 0 0
		CHANNELS 3 Zrotation Yrotation Xrotation
		JOINT LeftUpLeg
		{
			OFFSET 1.81424 -1.42316 1.18090
			CHANNELS 3 Zrotation Yrotation Xrotation
			JOINT LeftLeg
			{
				OFFSET 2.15837 -5.93008 0.00000
				CHANNELS 3 Zrotation Yrotation Xrotation
				JOINT LeftFoot
				{
					OFFSET 2.51759 -6.91701 0.00000
					CHANNELS 3 Zrotation Yrotation Xrotation
					JOINT LeftToeBase
					{
						OFFSET 0.18318 -0.50327 1.95113
						CHANNELS 3 Zrotation Yrotation Xrotation
						End Site
						{
							OFFSET 0.00000 -0.00000 1.01524
						}
					}
				}
			}
		}
	}
	JOINT RHipJoint
	{
		OFFSET 0 0 0
		CHANNELS 3 Zrotation Yrotation Xrotation
		JOINT RightUpLeg
		{
			OFFSET -1.43917 -1.42316 1.18090
			CHANNELS 3 Zrotation Yrotation Xrotation
			JOINT RightLeg
			{
				OFFSET -2.25237 -6.18833 0.00000
				CHANNELS 3 Zrotation Yrotation Xrotation
				JOINT RightFoot
				{
					OFFSET -2.46496 -6.77243 0.00000
					CHANNELS 3 Zrotation Yrotation Xrotation
					JOINT RightToeBase
					{
						OFFSET -0.26285 -0.72219 1.76148
						CHANNELS 3 Zrotation Yrotation Xrotation
						End Site
						{
							OFFSET -0.00000 -0.00000 0.95109
						}
					}
				}
			}
		}
	}
	JOINT LowerBack
	{
		OFFSET 0 0 0
		CHANNELS 3 Zrotation Yrotation Xrotation
		JOINT Spine
		{
			OFFSET -0.08725 1.93754 -0.28890
			CHANNELS 3 Zrotation Yrotation Xrotation
			JOINT Spine1
			{
				OFFSET 0.01195 1.94849 0.05967
				CHANNELS 3 Zrotation Yrotation Xrotation
				JOINT Neck
				{
					OFFSET 0 0 0
					CHANNELS 3 Zrotation Yrotation Xrotation
					JOINT Neck1
					{
						OFFSET 0.02762 1.60124 0.34160
						CHANNELS 3 Zrotation Yrotation Xrotation
						JOINT Head
						{
							OFFSET -0.04785 1.66713 -0.24070
							CHANNELS 3 Zrotation Yrotation Xrotation
							End Site
							{
								OFFSET -0.02188 1.68591 -0.11959
							}
						}
					}
				}
				JOINT LeftShoulder
				{
					OFFSET 0 0 0
					CHANNELS 3 Zrotation Yrotation Xrotation
					JOINT LeftArm
					{
						OFFSET 2.59610 1.78696 -0.28854
						CHANNELS 3 Zrotation Yrotation Xrotation
						JOINT LeftForeArm
						{
							OFFSET 5.17853 -0.00000 0.00000
							CHANNELS 3 Zrotation Yrotation Xrotation
							JOINT LeftHand
							{
								OFFSET 3.40399 -0.00000 -0.00000
								CHANNELS 3 Zrotation Yrotation Xrotation
								JOINT LeftFingerBase
								{
									OFFSET 0 0 0
									CHANNELS 3 Zrotation Yrotation Xrotation
									JOINT LeftHandIndex1
									{
										OFFSET 0.70896 -0.00000 -0.00000
										CHANNELS 3 Zrotation Yrotation Xrotation
										End Site
										{
											OFFSET 0.57159 -0.00000 -0.00000
										}
									}
								}
								JOINT LThumb
								{
									OFFSET 0 0 0
									CHANNELS 3 Zrotation Yrotation Xrotation
									End Site
									{
										OFFSET 0.58031 -0.00000 0.58031
									}
								}
							}
						}
					}
				}
				JOINT RightShoulder
				{
					OFFSET 0 0 0
					CHANNELS 3 Zrotation Yrotation Xrotation
					JOINT RightArm
					{
						OFFSET -2.87749 1.55486 -0.73085
						CHANNELS 3 Zrotation Yrotation Xrotation
						JOINT RightForeArm
						{
							OFFSET -5.42351 -0.00000 -0.00000
							CHANNELS 3 Zrotation Yrotation Xrotation
							JOINT RightHand
							{
								OFFSET -3.42066 -0.00000 -0.00000
								CHANNELS 3 Zrotation Yrotation Xrotation
								JOINT RightFingerBase
								{
									OFFSET 0 0 0
									CHANNELS 3 Zrotation Yrotation Xrotation
									JOINT RightHandIndex1
									{
										OFFSET -0.74361 -0.00000 -0.00000
										CHANNELS 3 Zrotation Yrotation Xrotation
										End Site
										{
											OFFSET -0.59952 -0.00000 -0.00000
										}
									}
								}
								JOINT RThumb
								{
									OFFSET 0 0 0
									CHANNELS 3 Zrotation Yrotation Xrotation
									End Site
									{
										OFFSET -0.60867 -0.00000 0.60867
									}
								}
							}
						}
					}
				}
			}
		}
	}
}
MOTION
Frames: 16
Frame Time: .0083333
1.3001 11.7228 -0.8854 0 0 0 0 0 0 -21 0 0 0 0 0 0 0 0 0 0 0 0 0 0 21 0 0 0 0 0 0 0 0 0 0 0 0 0 0 0 0 0 0 0 0 0 0 -16 0 0 21 0 0 11 0 0 0 -8 0 0 0 0 0 0 0 0 0 0 0 0 0 0 0 0 0 0 0 0 8 0 0 0 0 0 0 0 0 0 0 0 0 0 0 0 0 0
1.3001 11.7228 -0.8854 71.1162 -87.5289 -59.6176 0.0000 0.0000 0.0000 -0.1274 1.5359 -76.6428 23.1630 19.7584 99.2839 2.4592 -6.1860 -28.4085 0.6753 -5.2545 -14.6359 0.0000 0.0000 0.0000 -3.0960 -2.0628 -74.8459 -25.1025 -19.3640 105.0721 -4.6466 1.8253 -40.5638 -0.6957 5.3319 -14.8577 -5.4696 1.6124 18.8598 -0.2183 0.8409 -0.4451 2.6428 0.6803 -11.2122 2.5154 -0.2491 -27.8947 -2.8210 -0.7041 14.9272 -1.5034 -0.5243 9.1854 0.0000 -0.0000 0.0000 41.4384 -52.9226 -21.6942 26.0564 -37.2643 -8.9218 -0.0000 0.0000 -41.1653 -32.4930 -14.3387 8.9634 -7.1250 0.0000 -0.0000 -36.4981 13.3515 35.5085 0.0000 -0.0000 0.0000 -39.4060 59.0046 -42.3105 -20.9326 31.7495 -6.0144 0.0000 -0.0000 -20.1427 40.4936 13.7406 11.4653 7.1250 -0.0000 -0.0000 39.2925 -10.6812 44.0316
1.3005 11.7231 -0.8882 70.5084 -87.5460 -59.0699 0.0000 0.0000 0.0000 -0.0737 1.5481 -76.5766 23.1601 19.7589 99.2754 2.4571 -6.2232 -28.3918 0.6658 -5.2181 -14.5317 0.0000 0.0000 0.0000 -3.0419 -2.0711 -74.7645 -25.0997 -19.3647 105.0636 -4.6599 1.9169 -40.6027 -0.6934 5.3231 -14.8323 -5.4602 1.6221 18.9237 -0.1987 0.8538 -0.4229 2.6551 0.6861 -11.2249 2.5417 -0.2575 -28.0343 -2.8866 -0.7122 15.0655 -1.5348 -0.5346 9.2563 -0.0000 -0.0000 0.0000 41.4213 -52.9372 -21.7062 26.0975 -37.3049 -8.9467 -0.0000 0.0000 -41.2798 -32.8403 -14.0395 8.8991 -7.1250 0.0000 -0.0000 -36.7034 13.5222 35.6768 -0.0000 -0.0000 0.0000 -39.4142 59.0304 -42.4205 -20.8782 31.6859 -5.9859 0.0000 -0.0000 -20.0255 40.7124 13.7989 11.5986 7.1250 -0.0000 -0.0000 39.3384 -10.5081 44.3441
1.3030 11.7271 -0.8908 69.5245 -87.5502 -58.1088 0.0000 0.0000 0.0000 -0.0190 1.5309 -76.5468 23.1475 19.7608 99.2381 2.4367 -6.4923 -28.2404 0.5776 -4.8669 -13.5292 0.0000 0.0000 0.0000 -2.9904 -2.0755 -74.7057 -25.0891 -19.3674 105.0320 -4.6700 1.9658 -40.6367 -0.6785 5.2667 -14.6707 -5.4576 1.6145 18.9740 -0.1706 0.8442 -0.4415 2.6870 0.6842 -11.2741 2.5682 -0.2603 -28.0333 -2.9627 -0.7086 15.1187 -1.5659 -0.5403 9.2747 0.0000 0.0000 0.0000 41.3705 -52.9429 -21.6448 26.1173 -37.3243 -8.9587 -0.0000 0.0000 -41.3878 -33.4400 -13.8417 8.9779 -7.1250 0.0000 -0.0000 -36.9802 13.5212 36.1563 0.0000 0.0000 0.0000 -39.4094 59.0769 -42.4137 -20.8516 31.6547 -5.9719 0.0000 -0.0000 -19.9891 40.8976 13.8211 11.6904 7.1250 -0.0000 -0.0000 39.3825 -10.3844 44.5946
1.3070 11.7287 -0.8910 69.6919 -87.5581 -58.2460 0.0000 0.0000 0.0000 -0.0017 1.5149 -76.5909 23.1405 19.7619 99.2174 2.4240 -6.5085 -28.1612 0.5637 -4.8088 -13.3640 0.0000 0.0000 0.0000 -2.9896 -2.0374 -74.7608 -25.0849 -19.3684 105.0193 -4.6611 1.8706 -40.6190 -0.6700 5.2344 -14.5784 -5.4219 1.6072 18.9463 -0.1746 0.8440 -0.4572 2.6623 0.6824 -11.2752 2.6015 -0.2658 -28.0471 -3.0140 -0.7170 15.1668 -1.5914 -0.5483 9.2935 -0.0000 -0.0000 0.0000 41.4014 -52.9334 -21.6381 26.1435 -37.3501 -8.9746 -0.0000 0.0000 -41.5425 -34.0791 -13.5370 8.9984 -7.1250 0.0000 -0.0000 -37.2916 13.5956 36.6231 -0.0000 -0.0000 0.0000 -39.3625 59.0647 -42.2888 -20.8927 31.7029 -5.9934 0.0000 -0.0000 -20.0493 40.8827 13.7832 11.6539 7.1250 -0.0000 -0.0000 39.3865 -10.4270 44.5534
1.3108 11.7272 -0.8904 69.4829 -87.5443 -58.0083 0.0000 0.0000 0.0000 -0.0216 1.4673 -76.6641 23.1398 19.7620 99.2152 2.4268 -6.2845 -28.2016 0.6422 -5.1267 -14.2702 0.0000 0.0000 0.0000 -3.0013 -2.0572 -74.8295 -25.0846 -19.3685 105.0182 -4.6589 1.8564 -40.6124 -0.6655 5.2172 -14.5291 -5.3838 1.5922 18.9086 -0.1941 0.8330 -0.4508 2.6225 0.6735 -11.2444 2.7151 -0.2589 -28.1173 -3.0872 -0.7363 15.2239 -1.6398 -0.5594 9.3237 0.0000 0.0000 0.0000 41.4499 -52.9052 -21.6321 26.1954 -37.4010 -9.0061 -0.0000 0.0000 -41.7506 -34.3679 -13.1877 8.8681 -7.1250 0.0000 -0.0000 -37.4810 13.8179 36.7122 0.0000 0.0000 0.0000 -39.3083 59.0629 -42.3133 -20.9185 31.7331 -6.0070 0.0000 -0.0000 -19.9979 40.9154 13.7361 11.6290 7.1250 -0.0000 -0.0000 39.4051 -10.4511 44.5683
1.3133 11.7259 -0.8908 68.9244 -87.5602 -57.4402 0.0000 0.0000 0.0000 0.0114 1.4662 -76.7132 23.1457 19.7611 99.2326 2.4246 -6.4940 -28.1666 0.5811 -4.8813 -13.5703 0.0000 0.0000 0.0000 -2.9515 -2.0820 -74.8430 -25.0860 -19.3682 105.0225 -4.6729 1.9418 -40.6556 -0.6499 5.1567 -14.3561 -5.3489 1.5832 18.9277 -0.1734 0.8302 -0.4564 2.6261 0.6716 -11.2610 2.7159 -0.2746 -28.1567 -3.0890 -0.7579 15.2612 -1.6447 -0.5696 9.3426 -0.0000 0.0000 0.0000 41.4203 -52.8832 -21.5643 26.2204 -37.4255 -9.0212 -0.0000 0.0000 -41.9627 -34.6241 -12.9404 8.7896 -7.1250 0.0000 -0.0000 -37.6334 13.9566 36.8283 -0.0000 0.0000 0.0000 -39.2655 59.0150 -42.1552 -21.0079 31.8375 -6.0541 0.0000 -0.0000 -20.1142 41.0940 13.6591 11.6378 7.1250 -0.0000 -0.0000 39.4675 -10.4189 44.7542
1.3116 11.7284 -0.8896 70.2419 -87.5601 -58.7735 0.0000 0.0000 0.0000 -0.0247 1.4984 -76.6412 23.1424 19.7616 99.2230 2.4288 -6.6417 -28.1775 0.5181 -4.6135 -12.8093 0.0000 0.0000 0.0000 -2.9724 -2.0706 -74.7985 -25.0790 -19.3699 105.0014 -4.6665 1.8726 -40.6428 -0.6685 5.2288 -14.5624 -5.3834 1.5957 18.9017 -0.1651 0.8418 -0.4446 2.6520 0.6784 -11.2347 2.7174 -0.2628 -28.1366 -3.1231 -0.7350 15.2343 -1.6530 -0.5632 9.3305 -0.0000 0.0000 0.0000 41.3738 -52.8434 -21.4916 26.2469 -37.4515 -9.0374 -0.0000 0.0000 -42.1025 -35.0232 -12.7138 8.7679 -7.1250 0.0000 -0.0000 -37.8310 14.0252 37.1073 -0.0000 0.0000 0.0000 -39.2972 58.9869 -42.0625 -21.0687 31.9085 -6.0862 0.0000 -0.0000 -20.2562 41.3082 13.6590 11.7234 7.1250 -0.0000 -0.0000 39.5225 -10.2952 45.0331
1.3116 11.7311 -0.8901 71.0365 -87.5141 -59.5795 0.0000 0.0000 0.0000 -0.1006 1.4859 -76.5814 23.1319 19.7632 99.1920 2.4381 -6.4125 -28.2567 0.5947 -4.9371 -13.7292 0.0000 0.0000 0.0000 -3.0447 -2.0663 -74.8033 -25.0695 -19.3723 104.9728 -4.6414 1.7100 -40.5673 -0.7035 5.3610 -14.9413 -5.4909 1.5981 18.8569 -0.1636 0.8242 -0.4346 2.7203 0.6753 -11.1984 2.8689 -0.1898 -28.0809 -3.2631 -0.6633 15.1974 -1.7147 -0.5376 9.3098 0.0000 -0.0000 0.0000 41.2874 -52.7828 -21.3927 26.3035 -37.5069 -9.0718 -0.0000 0.0000 -42.1529 -35.4121 -12.5309 8.7692 -7.1250 0.0000 -0.0000 -38.0118 14.0532 37.4061 0.0000 -0.0000 0.0000 -39.4521 59.0929 -42.3914 -20.9863 31.8124 -6.0427 0.0000 -0.0000 -20.1252 41.5266 13.7296 11.8695 7.1250 -0.0000 -0.0000 39.5631 -10.1029 45.3607
1.3141 11.7313 -0.8921 70.1856 -87.5566 -58.7391 0.0000 0.0000 0.0000 -0.0218 1.4997 -76.5891 23.1313 19.7633 99.1901 2.4389 -6.4095 -28.2617 0.6285 -5.0729 -14.1165 0.0000 0.0000 0.0000 -2.9891 -2.0261 -74.8038 -25.0646 -19.3736 104.9581 -4.6347 1.7053 -40.5381 -0.6980 5.3404 -14.8821 -5.4583 1.5981 18.8702 -0.1382 0.8338 -0.4210 2.7273 0.6783 -11.1913 2.9661 -0.1532 -28.0879 -3.3852 -0.6255 15.1757 -1.7674 -0.5292 9.3040 -0.0000 -0.0000 0.0000 41.2914 -52.7851 -21.4458 26.3291 -37.5319 -9.0874 -0.0000 0.0000 -42.1619 -35.7429 -12.3760 8.7689 -7.1250 0.0000 -0.0000 -38.1635 14.0732 37.6640 -0.0000 -0.0000 0.0000 -39.4901 59.1323 -42.6287 -20.9496 31.7694 -6.0234 0.0000 -0.0000 -19.9749 41.7986 13.7814 12.0233 7.1250 -0.0000 -0.0000 39.6203 -9.8930 45.7508
1.3130 11.7314 -0.8903 71.5205 -87.5240 -60.1024 0.0000 0.0000 0.0000 -0.0829 1.4970 -76.5163 23.1278 19.7638 99.1798 2.4457 -6.5047 -28.2936 0.5917 -4.9246 -13.6936 0.0000 0.0000 0.0000 -3.0659 -2.0412 -74.7601 -25.0639 -19.3737 104.9560 -4.6363 1.8094 -40.5207 -0.6836 5.2863 -14.7269 -5.4285 1.6324 18.8778 -0.1719 0.8814 -0.3879 2.6596 0.6958 -11.1614 2.8970 -0.1942 -28.1820 -3.3747 -0.6591 15.1964 -1.7590 -0.5486 9.3256 -0.0000 0.0000 0.0000 41.4737 -52.8833 -21.7277 26.3055 -37.5088 -9.0730 -0.0000 0.0000 -42.1793 -36.2278 -12.1478 8.7644 -7.1250 0.0000 -0.0000 -38.3829 14.0974 38.0473 -0.0000 0.0000 0.0000 -39.3571 59.0184 -42.5140 -20.9995 31.8277 -6.0497 0.0000 -0.0000 -19.9807 42.0995 13.7951 12.1587 7.1250 -0.0000 -0.0000 39.6914 -9.6957 46.1613
1.3125 11.7291 -0.8883 73.4567 -87.3853 -62.0679 0.0000 0.0000 0.0000 -0.2904 1.4464 -76.4440 23.1158 19.7656 99.1442 2.4496 -6.2710 -28.3416 0.6293 -5.0762 -14.1259 0.0000 0.0000 0.0000 -3.2556 -2.1356 -74.7598 -25.0751 -19.3709 104.9897 -4.6472 1.9882 -40.5287 -0.6495 5.1552 -14.3518 -5.5167 1.6629 18.8687 -0.2288 0.8957 -0.3661 2.6433 0.7039 -11.1338 2.8534 -0.2245 -28.2168 -3.3530 -0.6883 15.2289 -1.7496 -0.5623 9.3420 -0.0000 0.0000 0.0000 41.5537 -52.9730 -21.9501 26.2770 -37.4810 -9.0557 -0.0000 0.0000 -42.1409 -36.8356 -11.9883 8.8437 -7.1250 0.0000 -0.0000 -38.6209 14.0025 38.6173 -0.0000 0.0000 0.0000 -39.3073 58.9562 -42.4314 -21.0149 31.8458 -6.0578 0.0000 -0.0000 -20.0285 42.2812 13.7298 12.1790 7.1250 -0.0000 -0.0000 39.7484 -9.6406 46.3691
1.3158 11.7246 -0.8902 73.9332 -87.3072 -62.5769 0.0000 0.0000 0.0000 -0.3729 1.4218 -76.4406 23.1075 19.7669 99.1196 2.4349 -6.1988 -28.2601 0.6179 -5.0305 -13.9955 0.0000 0.0000 0.0000 -3.3267 -2.1953 -74.7858 -25.0940 -19.3661 105.0468 -4.6644 2.1625 -40.5662 -0.6196 5.0376 -14.0159 -5.6343 1.6794 18.9012 -0.2297 0.8886 -0.3622 2.7109 0.7073 -11.1497 2.9495 -0.2208 -28.1880 -3.4829 -0.6912 15.2379 -1.8113 -0.5735 9.3397 -0.0000 0.0000 0.0000 41.5173 -52.9961 -22.0022 26.2657 -37.4699 -9.0488 -0.0000 0.0000 -42.1845 -37.3863 -11.9128 8.9642 -7.1250 0.0000 -0.0000 -38.8139 13.8431 39.1889 -0.0000 0.0000 0.0000 -39.3388 58.9930 -42.5018 -21.0039 31.8329 -6.0520 0.0000 -0.0000 -20.0543 42.3583 13.6200 12.1180 7.1250 -0.0000 -0.0000 39.7888 -9.6905 46.4104
1.3184 11.7245 -0.8919 74.8379 -87.2474 -63.5126 0.0000 0.0000 0.0000 -0.4213 1.4225 -76.3976 23.0989 19.7682 99.0943 2.4234 -6.4570 -28.1631 0.5041 -4.5514 -12.6335 0.0000 0.0000 0.0000 -3.3912 -2.2091 -74.7906 -25.1021 -19.3641 105.0710 -4.6576 2.1295 -40.5429 -0.6524 5.1665 -14.3840 -5.7536 1.7102 18.9364 -0.2256 0.9003 -0.3404 2.7799 0.7188 -11.1489 2.8871 -0.2665 -28.3231 -3.4360 -0.7403 15.3585 -1.7954 -0.5947 9.4030 0.0000 -0.0000 0.0000 41.5403 -52.9917 -22.0903 26.2711 -37.4751 -9.0521 -0.0000 0.0000 -42.3722 -37.7618 -11.7554 8.9681 -7.1250 0.0000 -0.0000 -38.9682 13.8251 39.5186 0.0000 -0.0000 0.0000 -39.4177 59.0040 -42.6694 -20.9856 31.8115 -6.0423 0.0000 -0.0000 -20.0707 42.3958 13.4486 11.9880 7.1250 -0.0000 -0.0000 39.8322 -9.8208 46.3620
1.3222 11.7265 -0.8931 75.1303 -87.2066 -63.7983 0.0000 0.0000 0.0000 -0.4492 1.3962 -76.3961 23.0904 19.7695 99.0692 2.4254 -6.4643 -28.1743 0.5017 -4.5410 -12.6039 0.0000 0.0000 0.0000 -3.4333 -2.2181 -74.8271 -25.1014 -19.3643 105.0689 -4.6418 2.0049 -40.5002 -0.6761 5.2579 -14.6456 -5.8141 1.7075 18.9488 -0.2225 0.8827 -0.3314 2.8229 0.7136 -11.1455 2.8023 -0.2815 -28.4124 -3.3486 -0.7474 15.4345 -1.7539 -0.5927 9.4449 0.0000 0.0000 0.0000 41.4712 -52.9635 -22.1122 26.2977 -37.5012 -9.0683 -0.0000 0.0000 -42.5369 -37.9477 -11.5488 8.8735 -7.1250 0.0000 -0.0000 -39.0752 13.9320 39.6016 0.0000 0.0000 0.0000 -39.5229 59.0240 -42.7938 -20.9853 31.8112 -6.0422 0.0000 -0.0000 -20.1511 42.3695 13.2713 11.8266 7.1250 -0.0000 -0.0000 39.8619 -9.9974 46.2223
1.3261 11.7235 -0.8937 74.5449 -87.2212 -63.1686 0.0000 0.0000 0.0000 -0.4298 1.3741 -76.5061 23.0956 19.7687 99.0844 2.4295 -6.1402 -28.2338 0.6349 -5.0981 -14.1885 0.0000 0.0000 0.0000 -3.3980 -2.2438 -74.9422 -25.1105 -19.3620 105.0964 -4.6388 1.9769 -40.4931 -0.6607 5.1988 -14.4766 -5.8277 1.6625 18.9612 -0.1729 0.8250 -0.3680 2.9015 0.6917 -11.1895 2.8857 -0.2099 -28.3413 -3.5228 -0.6438 15.3848 -1.8115 -0.5610 9.4187 -0.0000 -0.0000 0.0000 41.2390 -52.8997 -21.9674 26.3055 -37.5088 -9.0731 -0.0000 0.0000 -42.7052 -38.1413 -11.4231 8.8400 -7.1250 0.0000 -0.0000 -39.1640 13.9603 39.7459 -0.0000 -0.0000 0.0000 -39.7112 59.1110 -42.8298 -20.9997 31.8281 -6.0498 0.0000 -0.0000 -20.3305 42.3891 13.1990 11.7729 7.1250 -0.0000 -0.0000 39.8812 -10.0500 46.2065
